<?xml version="1.0" encoding="UTF-8" standalone="no"?>
<!-- Created with Inkscape (http://www.inkscape.org/) -->
<svg
   xmlns:dc="http://purl.org/dc/elements/1.1/"
   xmlns:cc="http://creativecommons.org/ns#"
   xmlns:rdf="http://www.w3.org/1999/02/22-rdf-syntax-ns#"
   xmlns:svg="http://www.w3.org/2000/svg"
   xmlns="http://www.w3.org/2000/svg"
   xmlns:xlink="http://www.w3.org/1999/xlink"
   xmlns:sodipodi="http://sodipodi.sourceforge.net/DTD/sodipodi-0.dtd"
   xmlns:inkscape="http://www.inkscape.org/namespaces/inkscape"
   width="620.27527"
   height="201.7477"
   id="svg8863"
   sodipodi:version="0.32"
   inkscape:version="0.46"
   version="1.0"
   sodipodi:docname="django_simple_mtv.svg"
   inkscape:output_extension="org.inkscape.output.svg.inkscape">
  <defs
     id="defs8865">
    <linearGradient
       id="linearGradient9509">
      <stop
         style="stop-color:#5aa02c;stop-opacity:1;"
         offset="0"
         id="stop9511" />
      <stop
         style="stop-color:#a05c2c;stop-opacity:1;"
         offset="1"
         id="stop9513" />
    </linearGradient>
    <inkscape:perspective
       sodipodi:type="inkscape:persp3d"
       inkscape:vp_x="0 : 526.18109 : 1"
       inkscape:vp_y="0 : 1000 : 0"
       inkscape:vp_z="744.09448 : 526.18109 : 1"
       inkscape:persp3d-origin="372.04724 : 350.78739 : 1"
       id="perspective8871" />
    <linearGradient
       inkscape:collect="always"
       xlink:href="#linearGradient9509"
       id="linearGradient9515"
       x1="58.641834"
       y1="166.39062"
       x2="433.95193"
       y2="166.39062"
       gradientUnits="userSpaceOnUse" />
  </defs>
  <sodipodi:namedview
     id="base"
     pagecolor="#ffffff"
     bordercolor="#666666"
     borderopacity="1.0"
     inkscape:pageopacity="0.0"
     inkscape:pageshadow="2"
     inkscape:zoom="1"
     inkscape:cx="299.33073"
     inkscape:cy="81.76879"
     inkscape:document-units="px"
     inkscape:current-layer="layer1"
     showgrid="false"
     inkscape:window-width="1430"
     inkscape:window-height="789"
     inkscape:window-x="0"
     inkscape:window-y="32" />
  <metadata
     id="metadata8868">
    <rdf:RDF>
      <cc:Work
         rdf:about="">
        <dc:format>image/svg+xml</dc:format>
        <dc:type
           rdf:resource="http://purl.org/dc/dcmitype/StillImage" />
      </cc:Work>
    </rdf:RDF>
  </metadata>
  <g
     inkscape:label="Capa 1"
     inkscape:groupmode="layer"
     id="layer1"
     transform="translate(-58.641834,-31.64408)">
    <path
       style="fill:#afe9af;fill-opacity:1;fill-rule:evenodd;stroke:#000000;stroke-width:0.58454591;stroke-linecap:butt;stroke-linejoin:miter;marker:none;marker-start:none;marker-mid:none;marker-end:none;stroke-miterlimit:4;stroke-dashoffset:0;stroke-opacity:1;visibility:visible;display:inline;overflow:visible;enable-background:accumulate"
       d="M 212.94663,73.16596 L 276.19624,45.301399 L 276.19624,164.28013 L 212.94663,136.41557 L 212.94663,73.16596 z"
       id="rect8997"
       sodipodi:nodetypes="ccccc" />
    <rect
       style="opacity:1;fill:#ffffff;fill-opacity:1;fill-rule:evenodd;stroke:#000000;stroke-width:0.85659236;stroke-linecap:butt;stroke-linejoin:miter;marker:none;marker-start:none;marker-mid:none;marker-end:none;stroke-miterlimit:4;stroke-dasharray:none;stroke-dashoffset:0;stroke-opacity:1;visibility:visible;display:inline;overflow:visible;enable-background:accumulate"
       id="rect8877"
       width="91.548981"
       height="79.579643"
       x="406.93979"
       y="34.072376"
       rx="10.506055"
       ry="7.7375641" />
    <rect
       ry="7.7375641"
       rx="10.506055"
       y="153.38383"
       x="534.55188"
       height="79.579643"
       width="91.548981"
       id="rect8879"
       style="opacity:1;fill:#ffffff;fill-opacity:1;fill-rule:evenodd;stroke:#000000;stroke-width:0.85659236;stroke-linecap:butt;stroke-linejoin:miter;marker:none;marker-start:none;marker-mid:none;marker-end:none;stroke-miterlimit:4;stroke-dasharray:none;stroke-dashoffset:0;stroke-opacity:1;visibility:visible;display:inline;overflow:visible;enable-background:accumulate" />
    <rect
       ry="7.7375641"
       rx="10.506055"
       y="32.072376"
       x="586.93982"
       height="79.579643"
       width="91.548981"
       id="rect8881"
       style="opacity:1;fill:#ffffff;fill-opacity:1;fill-rule:evenodd;stroke:#000000;stroke-width:0.85659236;stroke-linecap:butt;stroke-linejoin:miter;marker:none;marker-start:none;marker-mid:none;marker-end:none;stroke-miterlimit:4;stroke-dasharray:none;stroke-dashoffset:0;stroke-opacity:1;visibility:visible;display:inline;overflow:visible;enable-background:accumulate" />
    <text
       xml:space="preserve"
       style="font-size:10px;font-style:normal;font-variant:normal;font-weight:normal;font-stretch:normal;text-align:center;line-height:125%;writing-mode:lr-tb;text-anchor:middle;fill:#000000;fill-opacity:1;stroke:none;stroke-width:1px;stroke-linecap:butt;stroke-linejoin:miter;stroke-opacity:1;font-family:Bitstream Vera Sans;-inkscape-font-specification:Bitstream Vera Sans"
       x="244.30045"
       y="101.29955"
       id="text8883"
       sodipodi:linespacing="125%"><tspan
         sodipodi:role="line"
         id="tspan8885"
         x="244.30045"
         y="101.29955">url</tspan><tspan
         sodipodi:role="line"
         x="244.30045"
         y="113.79955"
         id="tspan8887">dispatcher</tspan></text>
    <text
       xml:space="preserve"
       style="font-size:10px;font-style:normal;font-weight:normal;fill:#000000;fill-opacity:1;stroke:none;stroke-width:1px;stroke-linecap:butt;stroke-linejoin:miter;stroke-opacity:1;font-family:Bitstream Vera Sans"
       x="441.2641"
       y="77.590225"
       id="text8889"><tspan
         sodipodi:role="line"
         id="tspan8891"
         x="441.2641"
         y="77.590225">view</tspan></text>
    <text
       id="text8893"
       y="74.620987"
       x="610.26801"
       style="font-size:10px;font-style:normal;font-weight:normal;fill:#000000;fill-opacity:1;stroke:none;stroke-width:1px;stroke-linecap:butt;stroke-linejoin:miter;stroke-opacity:1;font-family:Bitstream Vera Sans"
       xml:space="preserve"><tspan
         y="74.620987"
         x="610.26801"
         id="tspan8895"
         sodipodi:role="line">template</tspan></text>
    <text
       xml:space="preserve"
       style="font-size:10px;font-style:normal;font-weight:normal;fill:#000000;fill-opacity:1;stroke:none;stroke-width:1px;stroke-linecap:butt;stroke-linejoin:miter;stroke-opacity:1;font-family:Bitstream Vera Sans"
       x="559.6452"
       y="170.06331"
       id="text8897"><tspan
         sodipodi:role="line"
         id="tspan8899"
         x="559.6452"
         y="170.06331">Modelo</tspan><tspan
         sodipodi:role="line"
         x="559.6452"
         y="182.56331"
         id="tspan8901">(DB API)</tspan></text>
    <g
       id="g8915"
       transform="matrix(0.3914116,0,0,0.3914116,408.29619,80.873955)">
      <path
         sodipodi:nodetypes="cccscccc"
         id="rect8909"
         d="M 388.78125,291.375 C 381.56479,291.375 375.75,294.81233 375.75,299.09375 C 375.75,299.09375 375.71875,365.4375 375.71875,365.4375 C 375.71875,371.11315 401.14265,375.71876 432.46875,375.71875 C 463.79484,375.71875 489.21874,371.11314 489.21875,365.4375 L 489.25,299.09375 C 489.25,294.81234 483.43522,291.375 476.21875,291.375 L 388.78125,291.375 z"
         style="opacity:1;fill:#87aade;fill-opacity:1;fill-rule:evenodd;stroke:#000000;stroke-width:0.95323032;stroke-linecap:butt;stroke-linejoin:miter;marker:none;marker-start:none;marker-mid:none;marker-end:none;stroke-miterlimit:4;stroke-dasharray:none;stroke-dashoffset:0;stroke-opacity:1;visibility:visible;display:inline;overflow:visible;enable-background:accumulate" />
      <path
         transform="matrix(0.9993739,0,0,1.1515815,-0.4863767,-44.0283)"
         d="M 490.00001,296.29074 A 56.785713,8.9285717 0 1 1 376.42858,296.29074 A 56.785713,8.9285717 0 1 1 490.00001,296.29074 z"
         sodipodi:ry="8.9285717"
         sodipodi:rx="56.785713"
         sodipodi:cy="296.29074"
         sodipodi:cx="433.21429"
         id="path8905"
         style="opacity:1;fill:#5f8dd3;fill-opacity:1;fill-rule:evenodd;stroke:#000000;stroke-width:0.977;stroke-linecap:butt;stroke-linejoin:miter;marker:none;marker-start:none;marker-mid:none;marker-end:none;stroke-miterlimit:4;stroke-dasharray:none;stroke-dashoffset:0;stroke-opacity:1;visibility:visible;display:inline;overflow:visible;enable-background:accumulate"
         sodipodi:type="arc" />
    </g>
    <path
       style="opacity:1;fill:#afe9af;fill-opacity:1;fill-rule:evenodd;stroke:#000000;stroke-width:0.55766511;stroke-linecap:butt;stroke-linejoin:miter;marker:none;marker-start:none;marker-mid:none;marker-end:none;stroke-miterlimit:4;stroke-dasharray:none;stroke-dashoffset:0;stroke-opacity:1;visibility:visible;display:inline;overflow:visible;enable-background:accumulate"
       d="M 172.49286,75.62962 L 172.49286,95.89278 L 84.938634,95.89278 L 84.938634,111.80365 L 172.49286,111.80365 L 172.49286,132.06681 L 207.20423,103.84821 L 172.49286,75.62962 z"
       id="rect8919"
       sodipodi:nodetypes="cccccccc" />
    <path
       style="opacity:1;fill:#ff9955;fill-opacity:1;fill-rule:evenodd;stroke:#000000;stroke-width:0.27883255;stroke-linecap:butt;stroke-linejoin:miter;marker:none;marker-start:none;marker-mid:none;marker-end:none;stroke-miterlimit:4;stroke-dasharray:none;stroke-dashoffset:0;stroke-opacity:1;visibility:visible;display:inline;overflow:visible;enable-background:accumulate"
       d="M 385.70537,67.15625 L 385.70537,77.3125 L 365.70537,77.3125 L 361.92412,77.3125 L 341.92412,77.3125 L 341.92412,77.40625 L 325.98662,93.34375 L 325.17412,94.15625 L 311.48662,107.84375 L 304.70537,107.84375 L 290.92412,107.84375 L 280.92412,107.84375 L 280.92412,115.8125 L 290.92412,115.8125 L 304.70537,115.8125 L 314.70537,115.8125 L 314.70537,115.6875 L 314.79912,115.78125 L 330.79912,99.78125 L 331.61162,98.96875 L 345.33037,85.25 L 361.92412,85.25 L 365.70537,85.25 L 385.70537,85.25 L 385.70537,95.375 L 403.08037,81.28125 L 385.70537,67.15625 z"
       id="path8927" />
    <path
       inkscape:transform-center-y="-30.052038"
       inkscape:transform-center-x="-32.577422"
       style="opacity:1;fill:#87aade;fill-opacity:1;fill-rule:evenodd;stroke:#000000;stroke-width:0.27883255;stroke-linecap:butt;stroke-linejoin:miter;marker:none;marker-start:none;marker-mid:none;marker-end:none;stroke-miterlimit:4;stroke-dasharray:none;stroke-dashoffset:0;stroke-opacity:1;visibility:visible;display:inline;overflow:visible;enable-background:accumulate"
       d="M 300.85826,-42.658988 L 284.0453,-25.846025 L 289.67064,-20.220679 L 306.48361,-37.033643 L 300.85826,-42.658988 z"
       id="path8944"
       sodipodi:nodetypes="ccccc" />
    <path
       id="path8946"
       d="M 344.5625,-52.84375 L 344.5625,-42.6875 L 324.5625,-42.6875 L 320.78125,-42.6875 L 300.78125,-42.6875 L 300.78125,-34.75 L 320.78125,-34.75 L 324.5625,-34.75 L 344.5625,-34.75 L 344.5625,-24.625 L 361.9375,-38.71875 L 344.5625,-52.84375 z"
       style="opacity:1;fill:#87aade;fill-opacity:1;fill-rule:evenodd;stroke:#000000;stroke-width:0.27883255;stroke-linecap:butt;stroke-linejoin:miter;marker:none;marker-start:none;marker-mid:none;marker-end:none;stroke-miterlimit:4;stroke-dasharray:none;stroke-dashoffset:0;stroke-opacity:1;visibility:visible;display:inline;overflow:visible;enable-background:accumulate" />
    <path
       style="opacity:1;fill:url(#linearGradient9515);fill-opacity:1;fill-rule:evenodd;stroke:#000000;stroke-width:0.27883255;stroke-linecap:butt;stroke-linejoin:miter;marker:none;marker-start:none;marker-mid:none;marker-end:none;stroke-miterlimit:4;stroke-dasharray:none;stroke-dashoffset:0;stroke-opacity:1;visibility:visible;display:inline;overflow:visible;enable-background:accumulate"
       d="M 425.84375,116.96875 L 425.84375,139.09375 L 425.84375,160.75 L 425.84375,179.65625 L 412.15625,193.34375 L 411.34375,194.15625 L 397.65625,207.84375 L 390.9375,207.84375 L 377.15625,207.84375 L 370.375,207.84375 L 356.6875,194.15625 L 355.875,193.34375 L 339.9375,177.40625 L 339.9375,177.3125 L 319.9375,177.3125 L 316.15625,177.3125 L 76.15625,177.3125 L 76.15625,167.15625 L 58.78125,181.28125 L 76.15625,195.375 L 76.15625,185.25 L 316.15625,185.25 L 319.9375,185.25 L 336.53125,185.25 L 350.25,198.96875 L 351.0625,199.78125 L 367.0625,215.78125 L 367.15625,215.6875 L 367.15625,215.8125 L 377.15625,215.8125 L 390.9375,215.8125 L 400.9375,215.8125 L 400.9375,215.75 L 400.96875,215.78125 L 416.96875,199.78125 L 417.78125,198.96875 L 433.78125,182.96875 L 433.6875,182.875 L 433.8125,182.875 L 433.8125,139.09375 L 433.78125,139.09375 L 433.78125,116.96875 L 425.84375,116.96875 z"
       id="path8957"
       sodipodi:nodetypes="ccccccccccccccccccccccccccccccccccccccccccc" />
    <path
       style="fill:#dbe3db;fill-opacity:1;fill-rule:evenodd;stroke:#000000;stroke-width:0.27883255;stroke-linecap:butt;stroke-linejoin:miter;marker:none;marker-start:none;marker-mid:none;marker-end:none;stroke-miterlimit:4;stroke-dasharray:none;stroke-dashoffset:0;stroke-opacity:1;visibility:visible;display:inline;overflow:visible;enable-background:accumulate"
       d="M 560.34375,33.40625 L 560.34375,43.5625 L 540.34375,43.5625 L 536.5625,43.5625 L 516.5625,43.5625 L 516.5625,43.65625 L 499.8125,60.40625 L 505.4375,66.03125 L 519.96875,51.5 L 536.5625,51.5 L 540.34375,51.5 L 560.34375,51.5 L 560.34375,61.625 L 577.71875,47.53125 L 560.34375,33.40625 z"
       id="path8976" />
    <path
       id="path8987"
       d="M 517.1875,106.03125 L 517.1875,95.875 L 537.1875,95.875 L 540.96875,95.875 L 560.96875,95.875 L 560.96875,95.78125 L 577.71875,79.03125 L 572.09375,73.40625 L 557.5625,87.9375 L 540.96875,87.9375 L 537.1875,87.9375 L 517.1875,87.9375 L 517.1875,77.8125 L 499.8125,91.90625 L 517.1875,106.03125 z"
       style="fill:#6f916f;fill-opacity:1;fill-rule:evenodd;stroke:#000000;stroke-width:0.27883255;stroke-linecap:butt;stroke-linejoin:miter;marker:none;marker-start:none;marker-mid:none;marker-end:none;stroke-miterlimit:4;stroke-dasharray:none;stroke-dashoffset:0;stroke-opacity:1;visibility:visible;display:inline;overflow:visible;enable-background:accumulate" />
    <path
       style="opacity:1;fill:#87aade;fill-opacity:1;fill-rule:evenodd;stroke:#000000;stroke-width:0.18763834;stroke-linecap:butt;stroke-linejoin:miter;marker:none;marker-start:none;marker-mid:none;marker-end:none;stroke-miterlimit:4;stroke-dasharray:none;stroke-dashoffset:0;stroke-opacity:1;visibility:visible;display:inline;overflow:visible;enable-background:accumulate"
       d="M 528.6264,137.22989 L 523.79362,142.06266 L 514.27678,132.54581 L 512.4775,130.74654 L 502.96065,121.22969 L 499.18365,125.00669 L 508.7005,134.52354 L 510.49978,136.32281 L 520.01662,145.83966 L 515.19872,150.65757 L 530.17288,152.21892 L 528.6264,137.22989 z"
       id="path8989" />
    <text
       xml:space="preserve"
       style="font-size:9.68526363px;font-style:normal;font-weight:normal;fill:#000000;fill-opacity:1;stroke:none;stroke-width:1px;stroke-linecap:butt;stroke-linejoin:miter;stroke-opacity:1;font-family:Bitstream Vera Sans"
       x="88.31385"
       y="106.82378"
       id="text8991"><tspan
         sodipodi:role="line"
         id="tspan8993"
         x="88.31385"
         y="106.82378">GET /clientes/1/</tspan></text>
  </g>
</svg>
