<?xml version="1.0" encoding="UTF-8" standalone="no"?>
<!-- Created with Inkscape (http://www.inkscape.org/) -->
<svg
   xmlns:dc="http://purl.org/dc/elements/1.1/"
   xmlns:cc="http://creativecommons.org/ns#"
   xmlns:rdf="http://www.w3.org/1999/02/22-rdf-syntax-ns#"
   xmlns:svg="http://www.w3.org/2000/svg"
   xmlns="http://www.w3.org/2000/svg"
   xmlns:sodipodi="http://sodipodi.sourceforge.net/DTD/sodipodi-0.dtd"
   xmlns:inkscape="http://www.inkscape.org/namespaces/inkscape"
   width="744.09448819"
   height="1052.3622047"
   id="svg2"
   sodipodi:version="0.32"
   inkscape:version="0.46"
   sodipodi:docname="doff.svg"
   inkscape:output_extension="org.inkscape.output.svg.inkscape">
  <defs
     id="defs4">
    <inkscape:perspective
       sodipodi:type="inkscape:persp3d"
       inkscape:vp_x="0 : 526.18109 : 1"
       inkscape:vp_y="0 : 1000 : 0"
       inkscape:vp_z="744.09448 : 526.18109 : 1"
       inkscape:persp3d-origin="372.04724 : 350.78739 : 1"
       id="perspective10" />
    <inkscape:perspective
       id="perspective2464"
       inkscape:persp3d-origin="372.04724 : 350.78739 : 1"
       inkscape:vp_z="744.09448 : 526.18109 : 1"
       inkscape:vp_y="0 : 1000 : 0"
       inkscape:vp_x="0 : 526.18109 : 1"
       sodipodi:type="inkscape:persp3d" />
    <inkscape:perspective
       id="perspective3337"
       inkscape:persp3d-origin="372.04724 : 350.78739 : 1"
       inkscape:vp_z="744.09448 : 526.18109 : 1"
       inkscape:vp_y="0 : 1000 : 0"
       inkscape:vp_x="0 : 526.18109 : 1"
       sodipodi:type="inkscape:persp3d" />
  </defs>
  <sodipodi:namedview
     id="base"
     pagecolor="#ffffff"
     bordercolor="#666666"
     borderopacity="1.0"
     gridtolerance="10000"
     guidetolerance="10"
     objecttolerance="10"
     inkscape:pageopacity="0.0"
     inkscape:pageshadow="2"
     inkscape:zoom="0.8532809"
     inkscape:cx="61.855028"
     inkscape:cy="410.75524"
     inkscape:document-units="px"
     inkscape:current-layer="layer1"
     showgrid="false"
     showguides="true"
     inkscape:guide-bbox="true"
     inkscape:window-width="1020"
     inkscape:window-height="698"
     inkscape:window-x="251"
     inkscape:window-y="26" />
  <metadata
     id="metadata7">
    <rdf:RDF>
      <cc:Work
         rdf:about="">
        <dc:format>image/svg+xml</dc:format>
        <dc:type
           rdf:resource="http://purl.org/dc/dcmitype/StillImage" />
      </cc:Work>
    </rdf:RDF>
  </metadata>
  <g
     inkscape:label="Layer 1"
     inkscape:groupmode="layer"
     id="layer1">
    <path
       id="path3360"
       style="fill:#784421;stroke:none;stroke-width:4;stroke-miterlimit:4;stroke-dasharray:none;stroke-opacity:1;fill-opacity:1"
       d="M -1.7551174,497.86392 C -15.780391,497.16732 -30.541186,502.18772 -39.249928,513.63591 C -47.831855,524.10718 -50.481386,537.8122 -51.504353,550.95218 C -53.864193,573.10183 -53.335323,595.55979 -50.473407,617.63974 C -48.367231,631.13359 -44.592608,644.87506 -36.579011,656.10462 C -29.8822,665.05351 -18.754394,668.91396 -7.95023,669.50484 C 6.1789812,670.75856 21.773681,666.86339 30.672606,655.05032 C 40.726499,642.43348 45.034677,626.20855 46.258123,610.35966 C 48.322313,585.29403 48.781061,559.70116 43.434208,534.99656 C 36.636305,510.97244 22.364283,498.94134 -1.7551174,497.86392 z M -1.6613674,534.64517 C 8.9352092,535.04228 13.951106,546.18059 16.030891,555.15072 C 19.863624,572.21403 19.268582,590.18456 15.575554,607.21558 C 13.432846,615.89417 9.4181692,626.96854 -0.7799978,628.39052 C -10.901705,627.69897 -16.83978,616.88434 -17.967361,607.74051 C -21.174076,588.04051 -21.781164,567.5718 -16.788441,548.12504 C -14.328072,541.59646 -8.920455,535.50995 -1.6613674,534.64517 z M -121.8575,427.21148 C -147.06538,394.59973 -192.44889,359.12728 -235.11368,353.94372 L -234.46196,817.3619 C -183.04296,813.22096 -150.03329,781.04419 -123.6042,745.4437 C -97.17512,709.84321 -79.792444,632.57847 -79.875072,578.35998 C -79.9577,524.14148 -96.64963,459.82323 -121.8575,427.21148 z M -137.94441,476.37836 C -123.60652,499.79618 -114.11238,545.98178 -114.06539,584.91499 C -114.01839,623.84816 -123.90541,679.33038 -138.9379,704.89436 C -153.97039,730.45834 -172.74583,753.56382 -201.99222,756.53734 L -202.36291,423.76628 C -178.09578,427.4885 -152.28229,452.96053 -137.94441,476.37836 z M 99.511785,684.11214 C 122.56732,665.69164 157.41984,645.29806 181.87649,629.08304 C 183.5441,643.7536 184.28134,653.10464 185.42917,679.31858 C 186.56127,705.1733 185.3154,735.40283 184.97276,763.4437 C 183.78865,774.3563 169.86549,781.01099 163.74022,777.52093 C 169.04181,752.18528 142.88424,748.39549 136.23832,770.26027 C 126.17385,801.43929 161.44434,827.13378 185.24698,816.13664 C 209.04961,805.1395 212.77811,787.43835 213.40836,768.84762 C 215.22582,714.05272 214.4332,659.15551 216.97831,604.40583 C 231.64352,591.06205 246.34172,578.73328 264.09453,565.03676 C 281.84735,551.34023 266.50504,526.69494 250.91092,539.12783 C 235.3168,551.56071 210.92024,572.34954 213.0683,540.73525 C 213.52815,505.48107 211.14497,455.96662 215.17873,434.91691 C 219.21249,413.8672 232.56344,412.88871 238.73594,427.82519 C 230.34129,451.2713 253.51858,455.8048 258.30866,437.19505 C 262.97901,418.20324 261.18713,395.20988 245.12591,379.74831 C 228.49798,363.7412 204.20308,368.62248 194.58253,389.00909 C 184.96199,409.39571 184.41449,430.85106 184.0664,462.20449 C 183.71831,493.55793 184.64838,541.11225 181.32055,579.35189 C 171.99261,593.92829 153.96203,604.51528 137.61008,614.45748 C 126.17087,621.41267 111.1837,633.18827 104.84936,627.91172 C 102.03936,625.57096 102.42379,617.88563 103.0294,608.33076 C 105.02292,576.87871 106.08652,500.49979 108.4316,470.26778 C 110.77668,440.03577 117.08173,423.57773 132.65038,445.93364 C 125.69168,468.33099 148.90864,473.58693 158.06106,452.00992 C 165.35724,432.48208 158.50217,410.7121 143.38195,398.17046 C 128.26173,385.62882 102.54521,393.99371 93.865935,408.66587 C 85.321925,423.10938 81.682817,436.23351 80.787767,463.32976 C 79.880841,490.78554 74.247659,610.08083 74.489941,622.58053 C 74.726227,634.77084 73.37176,646.50097 71.946537,656.81733 C 65.745171,661.89438 71.146534,657.99 52.618689,671.36811 C 34.090844,684.74622 -8.578562,711.63692 -33.360707,731.41455 C -58.47511,751.45734 -32.786476,764.01827 -2.6104328,743.9437 C 27.099623,724.17913 44.422399,714.40511 67.073385,701.03179 C 70.564667,720.0258 69.628389,742.95143 69.51385,758.4892 C 69.399311,774.02697 69.417845,813.07129 49.841644,803.53284 C 52.900873,777.59603 27.006549,769.95171 22.711726,798.00962 C 20.330266,816.2946 27.488886,837.87098 46.267952,844.45191 C 66.767319,850.72756 90.466115,836.26675 95.174085,815.38295 C 104.07879,775.98955 94.192385,723.19123 99.511785,684.11214 z"
       sodipodi:nodetypes="ccccccccccccccccccccssccsscccccscccsccsscsccssscssssccsssscssscsccccc" />
    <text
       xml:space="preserve"
       style="font-size:40px;font-style:normal;font-weight:normal;fill:#000000;fill-opacity:1;stroke:none;stroke-width:1px;stroke-linecap:butt;stroke-linejoin:miter;stroke-opacity:1;font-family:Bitstream Vera Sans"
       x="-201.67886"
       y="888.76019"
       id="text3373"><tspan
         sodipodi:role="line"
         id="tspan3375"
         x="-201.67886"
         y="888.76019">Django Unplugged</tspan></text>
  </g>
</svg>
