<?xml version="1.0" encoding="UTF-8" standalone="no"?>
<!-- Created with Inkscape (http://www.inkscape.org/) -->
<svg
   xmlns:svg="http://www.w3.org/2000/svg"
   xmlns="http://www.w3.org/2000/svg"
   version="1.0"
   width="900"
   height="400"
   id="svg2">
  <defs
     id="defs4" />
  <g
     id="layer1">
    <text
       x="106.76047"
       y="418.20752"
       id="text2408"
       xml:space="preserve"
       style="font-size:14.79890251px;font-style:normal;font-weight:bold;text-align:center;text-anchor:middle;fill:#000000;fill-opacity:1;stroke:none;stroke-width:1px;stroke-linecap:butt;stroke-linejoin:miter;stroke-opacity:1;font-family:Bitstream Vera Sans;-inkscape-font-specification:Sans Bold"><tspan
         x="106.76047"
         y="418.20752"
         id="tspan2412"
         style="font-weight:normal;text-align:center;text-anchor:middle">Aplicación tradicional</tspan><tspan
         x="106.76047"
         y="436.70615"
         id="tspan2414"
         style="font-weight:normal;text-align:center;text-anchor:middle">(standalone)</tspan></text>
    <text
       x="466.7605"
       y="428.20752"
       id="text2430"
       xml:space="preserve"
       style="font-size:14.79890251px;font-style:normal;font-weight:bold;text-align:center;text-anchor:middle;fill:#000000;fill-opacity:1;stroke:none;stroke-width:1px;stroke-linecap:butt;stroke-linejoin:miter;stroke-opacity:1;font-family:Bitstream Vera Sans;-inkscape-font-specification:Sans Bold"><tspan
         x="466.7605"
         y="428.20752"
         id="tspan2434"
         style="font-weight:normal;text-align:center;text-anchor:middle">Aplicación web</tspan></text>
    <rect
       width="127.55633"
       height="87.348351"
       ry="3.0783546"
       x="264.63434"
       y="620.52344"
       id="rect2436"
       style="opacity:1;fill:#eeaaff;fill-opacity:1;fill-rule:evenodd;stroke:#061c58;stroke-width:1;stroke-linecap:butt;stroke-linejoin:miter;marker:none;marker-start:none;marker-mid:none;marker-end:none;stroke-miterlimit:4;stroke-dasharray:none;stroke-dashoffset:0;stroke-opacity:1;visibility:visible;display:inline;overflow:visible;enable-background:accumulate" />
    <text
       x="326.74286"
       y="661.078"
       id="text2438"
       xml:space="preserve"
       style="font-size:15.28926849px;font-style:normal;font-weight:bold;text-align:center;text-anchor:middle;fill:#000000;fill-opacity:1;stroke:none;stroke-width:1px;stroke-linecap:butt;stroke-linejoin:miter;stroke-opacity:1;font-family:Bitstream Vera Sans;-inkscape-font-specification:Sans Bold"><tspan
         x="326.74286"
         y="661.078"
         id="tspan2440"
         style="font-weight:normal;text-align:center;text-anchor:middle">Web</tspan><tspan
         x="326.74286"
         y="680.18958"
         id="tspan2442"
         style="font-weight:normal;text-align:center;text-anchor:middle">Browser</tspan></text>
    <path
       d="M 394.21875,523.125 C 393.82223,523.125 393.42883,523.28992 393.125,523.59375 L 393.125,536.65625 L 327.59375,536.65625 L 318.8125,536.65625 L 317.03125,536.65625 C 315.31251,536.65625 313.90626,538.03126 313.90625,539.75 L 313.90625,593.53125 L 299.1875,593.53125 C 298.57984,594.13892 298.57985,595.11109 299.1875,595.71875 L 319.53125,616.09375 C 320.13892,616.70142 321.14233,616.70142 321.75,616.09375 L 342.09375,595.71875 C 342.70141,595.11109 342.7014,594.13892 342.09375,593.53125 L 330.6875,593.53125 L 330.6875,553.40625 L 393.125,553.40625 L 393.125,566.5 C 393.73267,567.10766 394.7361,567.10765 395.34375,566.5 L 415.6875,546.125 C 416.29517,545.51733 416.29517,544.54516 415.6875,543.9375 L 395.34375,523.59375 C 395.03992,523.28992 394.61527,523.125 394.21875,523.125 z"
       id="rect2444"
       style="opacity:1;fill:#eeaaff;fill-opacity:1;fill-rule:evenodd;stroke:#061c58;stroke-width:0.86996901;stroke-linecap:butt;stroke-linejoin:miter;marker:none;marker-start:none;marker-mid:none;marker-end:none;stroke-miterlimit:4;stroke-dasharray:none;stroke-dashoffset:0;stroke-opacity:1;visibility:visible;display:inline;overflow:visible;enable-background:accumulate" />
    <path
       d="M 437.25426,172.54936 A 25.490158,25.490158 0 1 1 386.27394,172.54936 A 25.490158,25.490158 0 1 1 437.25426,172.54936 z"
       transform="translate(33.333283,371.45094)"
       id="path2459"
       style="opacity:1;fill:#eeaaff;fill-opacity:1;fill-rule:evenodd;stroke:#061c58;stroke-width:1;stroke-linecap:butt;stroke-linejoin:miter;marker:none;marker-start:none;marker-mid:none;marker-end:none;stroke-miterlimit:4;stroke-dasharray:none;stroke-dashoffset:0;stroke-opacity:1;visibility:visible;display:inline;overflow:visible;enable-background:accumulate" />
    <rect
       width="63.778164"
       height="43.674175"
       ry="1.5391773"
       x="22.523422"
       y="664.36047"
       id="rect2464"
       style="opacity:1;fill:#b7b7c8;fill-opacity:1;fill-rule:evenodd;stroke:#061c58;stroke-width:0.5;stroke-linecap:butt;stroke-linejoin:miter;marker:none;marker-start:none;marker-mid:none;marker-end:none;stroke-miterlimit:4;stroke-dasharray:none;stroke-dashoffset:0;stroke-opacity:1;visibility:visible;display:inline;overflow:visible;enable-background:accumulate" />
    <rect
       width="63.778164"
       height="43.674175"
       ry="1.5391773"
       x="136.52342"
       y="664.36047"
       id="rect2466"
       style="opacity:1;fill:#b7b7c8;fill-opacity:1;fill-rule:evenodd;stroke:#061c58;stroke-width:0.5;stroke-linecap:butt;stroke-linejoin:miter;marker:none;marker-start:none;marker-mid:none;marker-end:none;stroke-miterlimit:4;stroke-dasharray:none;stroke-dashoffset:0;stroke-opacity:1;visibility:visible;display:inline;overflow:visible;enable-background:accumulate" />
    <text
       x="153.85007"
       y="692.24829"
       id="text2468"
       xml:space="preserve"
       style="font-size:20px;font-style:normal;font-weight:bold;fill:#000000;fill-opacity:1;stroke:none;stroke-width:1px;stroke-linecap:butt;stroke-linejoin:miter;stroke-opacity:1;font-family:Bitstream Vera Sans;-inkscape-font-specification:Sans Bold"><tspan
         x="153.85007"
         y="692.24829"
         id="tspan2470">SO</tspan></text>
    <text
       x="31.850067"
       y="692.24829"
       id="text2472"
       xml:space="preserve"
       style="font-size:20px;font-style:normal;font-weight:bold;fill:#000000;fill-opacity:1;stroke:none;stroke-width:1px;stroke-linecap:butt;stroke-linejoin:miter;stroke-opacity:1;font-family:Bitstream Vera Sans;-inkscape-font-specification:Sans Bold"><tspan
         x="31.850067"
         y="692.24829"
         id="tspan2474">Libs</tspan></text>
    <text
       x="591.73871"
       y="93.847481"
       id="text2487"
       xml:space="preserve"
       style="font-size:15.28926849px;font-style:normal;font-weight:bold;fill:#000000;fill-opacity:1;stroke:none;stroke-width:1px;stroke-linecap:butt;stroke-linejoin:miter;stroke-opacity:1;font-family:Bitstream Vera Sans;-inkscape-font-specification:Sans Bold"><tspan
         x="591.73871"
         y="93.847481"
         id="tspan2489"
         style="font-weight:normal">Datos</tspan></text>
    <path
       d="M 70.625,574.625 C 70.428278,574.625 70.244489,574.69301 70.09375,574.84375 L 59.5625,585.375 C 59.261024,585.67648 59.261021,586.16728 59.5625,586.46875 L 67.125,586.46875 L 67.125,652.09375 C 67.125,652.27431 67.162031,652.46434 67.21875,652.625 L 59.5625,652.625 C 59.261021,652.92646 59.261024,653.41727 59.5625,653.71875 L 70.09375,664.25 C 70.395229,664.55149 70.886021,664.55148 71.1875,664.25 L 81.71875,653.71875 C 82.020226,653.41727 82.020227,652.92647 81.71875,652.625 L 74.75,652.625 C 74.806719,652.46434 74.843749,652.2743 74.84375,652.09375 L 74.84375,586.46875 L 81.71875,586.46875 C 82.020227,586.16728 82.020226,585.67649 81.71875,585.375 L 71.1875,574.84375 C 71.03676,574.69301 70.821722,574.625 70.625,574.625 z"
       id="rect2476"
       style="fill:#b7b7c8;fill-opacity:1;fill-rule:evenodd;stroke:#061c58;stroke-width:0.5;stroke-linecap:butt;stroke-linejoin:miter;marker:none;marker-start:none;marker-mid:none;marker-end:none;stroke-miterlimit:4;stroke-dashoffset:0;stroke-opacity:1;visibility:visible;display:inline;overflow:visible;enable-background:accumulate" />
    <path
       d="M -30.4298,582.66513 L -19.906378,572.14171 C -19.604901,571.84023 -19.119493,571.84023 -18.818014,572.14171 L -8.294593,582.66513 C -7.993118,582.96661 -7.993115,583.45202 -8.294592,583.75349 L -30.429799,583.75349 C -30.731277,583.45202 -30.731276,582.96661 -30.4298,582.66513 z"
       id="path2495"
       style="fill:#b7b7c8;fill-opacity:1;fill-rule:evenodd;stroke:#061c58;stroke-width:0.5;stroke-linecap:butt;stroke-linejoin:miter;marker:none;marker-start:none;marker-mid:none;marker-end:none;stroke-miterlimit:4;stroke-dashoffset:0;stroke-opacity:1;visibility:visible;display:inline;overflow:visible;enable-background:accumulate" />
    <rect
       width="7.7263231"
       height="69.598167"
       ry="1.5362"
       x="-22.875202"
       y="581.33594"
       id="rect2497"
       style="opacity:1;fill:#87aade;fill-opacity:1;fill-rule:evenodd;stroke:#061c58;stroke-width:1.40540469;stroke-linecap:butt;stroke-linejoin:miter;marker:none;marker-start:none;marker-mid:none;marker-end:none;stroke-miterlimit:4;stroke-dasharray:none;stroke-dashoffset:0;stroke-opacity:1;visibility:visible;display:inline;overflow:visible;enable-background:accumulate" />
    <path
       d="M -30.4298,651.00396 L -19.906378,661.52738 C -19.604901,661.82886 -19.119493,661.82886 -18.818014,661.52738 L -8.294593,651.00396 C -7.993118,650.70248 -7.993115,650.21707 -8.294592,649.9156 L -30.429799,649.9156 C -30.731277,650.21707 -30.731276,650.70248 -30.4298,651.00396 z"
       id="path2499"
       style="fill:#b7b7c8;fill-opacity:1;fill-rule:evenodd;stroke:#061c58;stroke-width:0.5;stroke-linecap:butt;stroke-linejoin:miter;marker:none;marker-start:none;marker-mid:none;marker-end:none;stroke-miterlimit:4;stroke-dashoffset:0;stroke-opacity:1;visibility:visible;display:inline;overflow:visible;enable-background:accumulate" />
    <path
       d="M 96.625,574.84375 C 96.428278,574.84375 96.24449,574.94301 96.09375,575.09375 L 85.5625,585.59375 C 85.26102,585.89523 85.261022,586.38603 85.5625,586.6875 L 92.9375,586.6875 L 92.9375,619.3125 C 92.9375,619.46229 92.991066,619.59938 93.0625,619.71875 L 93.0625,623.78125 C 93.0625,624.51291 93.674592,625.12499 94.40625,625.125 L 144.9375,625.125 L 144.8125,654.84375 L 137.5625,654.84375 C 137.26101,655.14522 137.26102,655.63602 137.5625,655.9375 L 148.09375,666.46875 C 148.39524,666.77022 148.88602,666.77023 149.1875,666.46875 L 159.71875,655.9375 C 160.02022,655.63603 160.02022,655.14522 159.71875,654.84375 L 152.90625,654.84375 L 152.90625,618.625 C 152.90625,617.89334 152.3254,617.28125 151.59375,617.28125 L 101.03125,617.28125 L 101.03125,586.6875 L 107.71875,586.6875 C 108.02022,586.38603 108.02022,585.89523 107.71875,585.59375 L 97.1875,575.09375 C 97.03676,574.94301 96.821722,574.84375 96.625,574.84375 z"
       id="path2510"
       style="fill:#b7b7c8;fill-opacity:1;fill-rule:evenodd;stroke:#061c58;stroke-width:0.5;stroke-linecap:butt;stroke-linejoin:miter;marker:none;marker-start:none;marker-mid:none;marker-end:none;stroke-miterlimit:4;stroke-dashoffset:0;stroke-opacity:1;visibility:visible;display:inline;overflow:visible;enable-background:accumulate" />
    <path
       d="M 95,673.53125 C 94.803279,673.53125 94.619489,673.63052 94.46875,673.78125 L 83.9375,684.28125 C 83.63602,684.58273 83.636021,685.07353 83.9375,685.375 L 94.46875,695.90625 C 94.77023,696.20773 95.261033,696.20772 95.5625,695.90625 L 95.5625,688.53125 L 125.71875,688.53125 L 125.71875,695.90625 C 126.02022,696.20772 126.51102,696.20773 126.8125,695.90625 L 137.34375,685.375 C 137.64523,685.07353 137.64523,684.58273 137.34375,684.28125 L 126.8125,673.78125 C 126.51102,673.47978 126.02022,673.47977 125.71875,673.78125 L 125.71875,680.4375 L 95.5625,680.4375 L 95.5625,673.78125 C 95.411765,673.63051 95.196721,673.53125 95,673.53125 z"
       id="path2525"
       style="fill:#b7b7c8;fill-opacity:1;fill-rule:evenodd;stroke:#061c58;stroke-width:0.5;stroke-linecap:butt;stroke-linejoin:miter;marker:none;marker-start:none;marker-mid:none;marker-end:none;stroke-miterlimit:4;stroke-dashoffset:0;stroke-opacity:1;visibility:visible;display:inline;overflow:visible;enable-background:accumulate" />
    <rect
       width="108.59485"
       height="51.319206"
       ry="0.88656998"
       x="560.04669"
       y="62.72316"
       id="rect3320"
       style="opacity:1;fill:#87aade;fill-opacity:1;fill-rule:evenodd;stroke:#061c58;stroke-width:0.59248048;stroke-linecap:butt;stroke-linejoin:miter;marker:none;marker-start:none;marker-mid:none;marker-end:none;stroke-miterlimit:4;stroke-dasharray:none;stroke-dashoffset:0;stroke-opacity:1;visibility:visible;display:inline;overflow:visible;enable-background:accumulate" />
    <rect
       width="76.00605"
       height="89.441086"
       ry="1.5451483"
       x="37.851463"
       y="117.98877"
       id="rect2479"
       style="fill:#ccffaa;fill-opacity:1;fill-rule:evenodd;stroke:#061c58;stroke-width:0.65436804;stroke-linecap:butt;stroke-linejoin:miter;marker:none;marker-start:none;marker-mid:none;marker-end:none;stroke-miterlimit:4;stroke-dasharray:none;stroke-dashoffset:0;stroke-opacity:1;visibility:visible;display:inline;overflow:visible;enable-background:accumulate" />
    <text
       x="49.43261"
       y="167.03406"
       id="text2483"
       xml:space="preserve"
       style="font-size:15.28926849px;font-style:normal;font-weight:bold;fill:#000000;fill-opacity:1;stroke:none;stroke-width:1px;stroke-linecap:butt;stroke-linejoin:miter;stroke-opacity:1;font-family:Bitstream Vera Sans;-inkscape-font-specification:Sans Bold"><tspan
         x="49.43261"
         y="167.03406"
         id="tspan2485"
         style="font-weight:normal">Código</tspan></text>
    <rect
       width="117.84634"
       height="89.281372"
       ry="1.5423892"
       x="37.93132"
       y="118.06863"
       id="rect3318"
       style="fill:#ccffaa;fill-opacity:1;fill-rule:evenodd;stroke:#061c58;stroke-width:0.81408161;stroke-linecap:butt;stroke-linejoin:miter;marker:none;marker-start:none;marker-mid:none;marker-end:none;stroke-miterlimit:4;stroke-dasharray:none;stroke-dashoffset:0;stroke-opacity:1;visibility:visible;display:inline;overflow:visible;enable-background:accumulate" />
    <text
       x="54.756741"
       y="158.85339"
       id="text3322"
       xml:space="preserve"
       style="font-size:15.28926849px;font-style:normal;font-weight:bold;fill:#000000;fill-opacity:1;stroke:none;stroke-width:1px;stroke-linecap:butt;stroke-linejoin:miter;stroke-opacity:1;font-family:Bitstream Vera Sans;-inkscape-font-specification:Sans Bold"><tspan
         x="54.756741"
         y="158.85339"
         id="tspan3324"
         style="font-weight:normal">Navegador</tspan><tspan
         x="54.756741"
         y="177.96498"
         id="tspan4468"
         style="font-weight:normal">Web</tspan></text>
    <text
       x="575.86713"
       y="84.832932"
       id="text3326"
       xml:space="preserve"
       style="font-size:15.28926849px;font-style:normal;font-weight:bold;fill:#000000;fill-opacity:1;stroke:none;stroke-width:1px;stroke-linecap:butt;stroke-linejoin:miter;stroke-opacity:1;font-family:Bitstream Vera Sans;-inkscape-font-specification:Sans Bold"><tspan
         x="575.86713"
         y="84.832932"
         id="tspan3328"
         style="font-weight:normal">Aplicación</tspan><tspan
         x="575.86713"
         y="103.94452"
         id="tspan4452"
         style="font-weight:normal">WSGI</tspan></text>
    <text
       x="488.74286"
       y="535.72821"
       id="text3346"
       xml:space="preserve"
       style="font-size:15.28926849px;font-style:normal;font-weight:bold;fill:#000000;fill-opacity:1;stroke:none;stroke-width:1px;stroke-linecap:butt;stroke-linejoin:miter;stroke-opacity:1;font-family:Bitstream Vera Sans;-inkscape-font-specification:Sans Bold"><tspan
         x="488.74286"
         y="535.72821"
         id="tspan3348"
         style="font-weight:normal">Código</tspan></text>
    <path
       d="M 538.625,574.84375 C 538.42828,574.84375 538.24449,574.94301 538.09375,575.09375 L 527.5625,585.59375 C 527.26102,585.89523 527.26102,586.38603 527.5625,586.6875 L 534.9375,586.6875 L 534.9375,619.3125 C 534.9375,619.46229 534.99107,619.59938 535.0625,619.71875 L 535.0625,623.78125 C 535.0625,624.51291 535.67459,625.12499 536.40625,625.125 L 586.9375,625.125 L 586.8125,654.84375 L 579.5625,654.84375 C 579.26101,655.14522 579.26102,655.63602 579.5625,655.9375 L 590.09375,666.46875 C 590.39524,666.77022 590.88602,666.77023 591.1875,666.46875 L 601.71875,655.9375 C 602.02022,655.63603 602.02022,655.14522 601.71875,654.84375 L 594.90625,654.84375 L 594.90625,618.625 C 594.90625,617.89334 594.3254,617.28125 593.59375,617.28125 L 543.03125,617.28125 L 543.03125,586.6875 L 549.71875,586.6875 C 550.02022,586.38603 550.02022,585.89523 549.71875,585.59375 L 539.1875,575.09375 C 539.03676,574.94301 538.82172,574.84375 538.625,574.84375 z"
       id="path3356"
       style="fill:#b7b7c8;fill-opacity:1;fill-rule:evenodd;stroke:#061c58;stroke-width:0.5;stroke-linecap:butt;stroke-linejoin:miter;marker:none;marker-start:none;marker-mid:none;marker-end:none;stroke-miterlimit:4;stroke-dashoffset:0;stroke-opacity:1;visibility:visible;display:inline;overflow:visible;enable-background:accumulate" />
    <rect
       width="238.58757"
       height="88.939339"
       ry="1.5364803"
       x="438.18207"
       y="293.12054"
       id="rect3360"
       style="opacity:1;fill:#ccffaa;fill-opacity:1;fill-rule:evenodd;stroke:#061c58;stroke-width:1.15611303;stroke-linecap:butt;stroke-linejoin:miter;marker:none;marker-start:none;marker-mid:none;marker-end:none;stroke-miterlimit:4;stroke-dasharray:none;stroke-dashoffset:0;stroke-opacity:1;visibility:visible;display:inline;overflow:visible;enable-background:accumulate" />
    <text
       x="506.26651"
       y="343.32916"
       id="text3364"
       xml:space="preserve"
       style="font-size:15.28926849px;font-style:normal;font-weight:bold;fill:#000000;fill-opacity:1;stroke:none;stroke-width:1px;stroke-linecap:butt;stroke-linejoin:miter;stroke-opacity:1;font-family:Bitstream Vera Sans;-inkscape-font-specification:Sans Bold"><tspan
         x="506.26651"
         y="343.32916"
         id="tspan3366"
         style="font-weight:normal">Servidor Web</tspan></text>
    <text
       x="146.13892"
       y="323.02161"
       id="text3372"
       xml:space="preserve"
       style="font-size:20px;font-style:normal;font-weight:bold;fill:#000000;fill-opacity:1;stroke:none;stroke-width:1px;stroke-linecap:butt;stroke-linejoin:miter;stroke-opacity:1;font-family:Bitstream Vera Sans;-inkscape-font-specification:Sans Bold"><tspan
         x="146.13892"
         y="323.02161"
         id="tspan3374">HTTP</tspan></text>
    <path
       d="M 104.8125,201.90625 C 104.48929,201.90625 104.15046,202.03702 103.90625,202.28125 L 86.84375,219.3125 C 86.355312,219.80095 86.35533,220.60533 86.84375,221.09375 L 98.78125,221.09375 L 98.81991,352.5 L 421.71875,352.5 L 421.71875,364.4375 C 422.20716,364.92592 423.01156,364.92594 423.5,364.4375 L 440.5625,347.375 C 441.05095,346.88658 441.05095,346.08219 440.5625,345.59375 L 423.5,328.59375 C 423.01155,328.10529 422.20717,328.10529 421.71875,328.59375 L 421.71875,339.375 L 111.90625,339.375 L 111.90625,221.09375 L 122.6875,221.09375 C 122.93206,220.84988 123.09375,220.50622 123.09375,220.1875 C 123.09375,219.86881 122.93206,219.5564 122.6875,219.3125 L 105.6875,202.28125 C 105.44328,202.03703 105.13571,201.90625 104.8125,201.90625 z"
       id="path4477"
       style="fill:#eeaaff;fill-opacity:1;fill-rule:evenodd;stroke:#061c58;stroke-width:0.80995476;stroke-linecap:butt;stroke-linejoin:miter;marker:none;marker-start:none;marker-mid:none;marker-end:none;stroke-miterlimit:4;stroke-dashoffset:0;stroke-opacity:1;visibility:visible;display:inline;overflow:visible;enable-background:accumulate" />
    <rect
       width="127.55633"
       height="87.348351"
       ry="13.655575"
       x="753.1662"
       y="296.78937"
       id="rect4472"
       style="opacity:1;fill:#eeaaff;fill-opacity:1;fill-rule:evenodd;stroke:#061c58;stroke-width:1;stroke-linecap:butt;stroke-linejoin:miter;marker:none;marker-start:none;marker-mid:none;marker-end:none;stroke-miterlimit:4;stroke-dasharray:6, 6;stroke-dashoffset:0;stroke-opacity:1;visibility:visible;display:inline;overflow:visible;enable-background:accumulate" />
    <path
       d="M 624.76329,107.96021 C 624.35664,107.96021 623.97671,108.17309 623.6651,108.49643 L 601.89509,131.01769 C 601.27188,131.66432 601.2719,132.71705 601.89509,133.36365 L 617.52816,133.36365 L 617.52816,274.18853 C 617.52816,274.56882 617.60871,274.92163 617.72195,275.26097 L 601.89509,275.26097 C 601.2719,275.90761 601.27188,276.9603 601.89509,277.60694 L 623.6651,300.19522 C 624.28829,300.84182 625.30287,300.84186 625.92608,300.19522 L 647.69609,277.60694 C 648.31934,276.96028 648.31928,275.90759 647.69609,275.26097 L 633.29042,275.26097 C 633.40366,274.92163 633.48421,274.56884 633.48421,274.18853 L 633.48421,133.36365 L 647.69609,133.36365 C 648.31928,132.71703 648.31934,131.66439 647.69609,131.01769 L 625.92608,108.49643 C 625.61447,108.17311 625.16995,107.96021 624.76329,107.96021 z"
       id="path4480"
       style="fill:#eeaaff;fill-opacity:1;fill-rule:evenodd;stroke:#061c58;stroke-width:1.05283666;stroke-linecap:butt;stroke-linejoin:miter;marker:none;marker-start:none;marker-mid:none;marker-end:none;stroke-miterlimit:4;stroke-dashoffset:0;stroke-opacity:1;visibility:visible;display:inline;overflow:visible;enable-background:accumulate" />
    <rect
       width="99.28051"
       height="62.519676"
       ry="2.2033358"
       x="710.64661"
       y="139.48366"
       id="rect3330"
       style="opacity:1;fill:#e5ff80;fill-opacity:1;fill-rule:evenodd;stroke:#061c58;stroke-width:0.74638355;stroke-linecap:butt;stroke-linejoin:miter;marker:none;marker-start:none;marker-mid:none;marker-end:none;stroke-miterlimit:4;stroke-dasharray:none;stroke-dashoffset:0;stroke-opacity:1;visibility:visible;display:inline;overflow:visible;enable-background:accumulate" />
    <rect
       width="120.59209"
       height="43.48811"
       ry="1.5326198"
       x="552.33722"
       y="147.12256"
       id="rect3332"
       style="opacity:1;fill:#e5ff80;fill-opacity:1;fill-rule:evenodd;stroke:#061c58;stroke-width:0.68606669;stroke-linecap:butt;stroke-linejoin:miter;marker:none;marker-start:none;marker-mid:none;marker-end:none;stroke-miterlimit:4;stroke-dasharray:none;stroke-dashoffset:0;stroke-opacity:1;visibility:visible;display:inline;overflow:visible;enable-background:accumulate" />
    <text
       x="576.05719"
       y="164.54698"
       id="text3334"
       xml:space="preserve"
       style="font-size:15.04816151px;font-style:normal;font-weight:normal;fill:#000000;fill-opacity:1;stroke:none;stroke-width:1px;stroke-linecap:butt;stroke-linejoin:miter;stroke-opacity:1;font-family:Bitstream Vera Sans;-inkscape-font-specification:Bitstream Vera Sans"><tspan
         x="576.05719"
         y="164.54698"
         id="tspan3336">Intérprete</tspan><tspan
         x="576.05719"
         y="183.35718"
         id="tspan4438">Python</tspan></text>
    <text
       x="569.66345"
       y="235.51807"
       id="text3350"
       xml:space="preserve"
       style="font-size:15.28926849px;font-style:normal;font-weight:bold;fill:#000000;fill-opacity:1;stroke:none;stroke-width:1px;stroke-linecap:butt;stroke-linejoin:miter;stroke-opacity:1;font-family:Bitstream Vera Sans;-inkscape-font-specification:Sans Bold"><tspan
         x="569.66345"
         y="235.51807"
         id="tspan3352"
         style="font-weight:normal">Datos</tspan></text>
    <path
       d="M 667.51911,166.73775 C 667.51911,166.93447 667.58712,167.11826 667.73786,167.269 L 678.26911,177.80025 C 678.57059,178.10173 679.06139,178.10173 679.36286,177.80025 L 679.36286,170.23775 L 700.98786,170.23775 C 701.16842,170.23775 701.35845,170.20072 701.51911,170.144 L 701.51911,177.80025 C 701.82057,178.10173 702.31138,178.10173 702.61286,177.80025 L 713.14411,167.269 C 713.4456,166.96752 713.44559,166.47673 713.14411,166.17525 L 702.61286,155.644 C 702.31138,155.34252 701.82058,155.34252 701.51911,155.644 L 701.51911,162.61275 C 701.35845,162.55603 701.16841,162.519 700.98786,162.519 L 679.36286,162.519 L 679.36286,155.644 C 679.06139,155.34252 678.5706,155.34252 678.26911,155.644 L 667.73786,166.17525 C 667.58712,166.32599 667.51911,166.54103 667.51911,166.73775 z"
       id="path3354"
       style="fill:#e5ff80;fill-opacity:1;fill-rule:evenodd;stroke:#061c58;stroke-width:0.5;stroke-linecap:butt;stroke-linejoin:miter;marker:none;marker-start:none;marker-mid:none;marker-end:none;stroke-miterlimit:4;stroke-dashoffset:0;stroke-opacity:1;visibility:visible;display:inline;overflow:visible;enable-background:accumulate" />
    <rect
       width="162.1657"
       height="56.806801"
       ry="0.9813714"
       x="511.18604"
       y="201.64995"
       id="rect3362"
       style="opacity:1;fill:#87aade;fill-opacity:1;fill-rule:evenodd;stroke:#061c58;stroke-width:0.7617442;stroke-linecap:butt;stroke-linejoin:miter;marker:none;marker-start:none;marker-mid:none;marker-end:none;stroke-miterlimit:4;stroke-dasharray:none;stroke-dashoffset:0;stroke-opacity:1;visibility:visible;display:inline;overflow:visible;enable-background:accumulate" />
    <text
       x="591.93292"
       y="226.50352"
       id="text3368"
       xml:space="preserve"
       style="font-size:15.28926849px;font-style:normal;font-weight:bold;text-align:center;text-anchor:middle;fill:#000000;fill-opacity:1;stroke:none;stroke-width:1px;stroke-linecap:butt;stroke-linejoin:miter;stroke-opacity:1;font-family:Bitstream Vera Sans;-inkscape-font-specification:Sans Bold"><tspan
         x="591.93292"
         y="226.50352"
         id="tspan3370"
         style="font-weight:normal;text-align:center;text-anchor:middle">Módulo</tspan><tspan
         x="591.93292"
         y="245.61511"
         id="tspan4436"
         style="font-weight:normal;text-align:center;text-anchor:middle">WSGI</tspan></text>
    <text
       x="724.7973"
       y="157.54329"
       id="text4440"
       xml:space="preserve"
       style="font-size:15.04816151px;font-style:normal;font-weight:normal;fill:#000000;fill-opacity:1;stroke:none;stroke-width:1px;stroke-linecap:butt;stroke-linejoin:miter;stroke-opacity:1;font-family:Bitstream Vera Sans;-inkscape-font-specification:Bitstream Vera Sans"><tspan
         x="724.7973"
         y="157.54329"
         id="tspan4444"
         style="font-style:italic;-inkscape-font-specification:Bitstream Vera Sans">Site</tspan><tspan
         x="724.7973"
         y="176.35349"
         id="tspan4448"
         style="font-style:italic;-inkscape-font-specification:Bitstream Vera Sans">Packages</tspan><tspan
         x="724.7973"
         y="195.1637"
         id="tspan4450">Librerías</tspan></text>
    <path
       d="M 671.06802,337.88317 C 671.06802,338.07989 671.13603,338.26368 671.28677,338.41442 L 681.81802,348.94567 C 682.1195,349.24715 682.6103,349.24715 682.91177,348.94567 L 682.91177,341.38317 L 748.53677,341.38317 C 748.71733,341.38317 748.90736,341.34614 749.06802,341.28942 L 749.06802,348.94567 C 749.36948,349.24715 749.86029,349.24715 750.16177,348.94567 L 760.69302,338.41442 C 760.99451,338.11294 760.9945,337.62215 760.69302,337.32067 L 750.16177,326.78942 C 749.86029,326.48794 749.36949,326.48794 749.06802,326.78942 L 749.06802,333.75817 C 748.90736,333.70145 748.71732,333.66442 748.53677,333.66442 L 682.91177,333.66442 L 682.91177,326.78942 C 682.6103,326.48794 682.11951,326.48794 681.81802,326.78942 L 671.28677,337.32067 C 671.13603,337.47141 671.06802,337.68645 671.06802,337.88317 z"
       id="path5257"
       style="fill:#b7b7c8;fill-opacity:1;fill-rule:evenodd;stroke:#061c58;stroke-width:0.5;stroke-linecap:butt;stroke-linejoin:miter;marker:none;marker-start:none;marker-mid:none;marker-end:none;stroke-miterlimit:4;stroke-dashoffset:0;stroke-opacity:1;visibility:visible;display:inline;overflow:visible;enable-background:accumulate" />
    <text
       x="814.26648"
       y="337.32916"
       id="text5263"
       xml:space="preserve"
       style="font-size:15.28926849px;font-style:normal;font-weight:bold;text-align:center;text-anchor:middle;fill:#000000;fill-opacity:1;stroke:none;stroke-width:1px;stroke-linecap:butt;stroke-linejoin:miter;stroke-opacity:1;font-family:Bitstream Vera Sans;-inkscape-font-specification:Sans Bold"><tspan
         x="814.26648"
         y="337.32916"
         id="tspan5265"
         style="font-weight:normal;text-align:center;text-anchor:middle">Contenido</tspan><tspan
         x="814.26648"
         y="356.44073"
         id="tspan5267"
         style="font-weight:normal;text-align:center;text-anchor:middle">estático</tspan></text>
  </g>
</svg>
