<?xml version="1.0" encoding="UTF-8" standalone="no"?>
<!-- Created with Inkscape (http://www.inkscape.org/) -->
<svg
   xmlns:dc="http://purl.org/dc/elements/1.1/"
   xmlns:cc="http://creativecommons.org/ns#"
   xmlns:rdf="http://www.w3.org/1999/02/22-rdf-syntax-ns#"
   xmlns:svg="http://www.w3.org/2000/svg"
   xmlns="http://www.w3.org/2000/svg"
   xmlns:xlink="http://www.w3.org/1999/xlink"
   xmlns:sodipodi="http://sodipodi.sourceforge.net/DTD/sodipodi-0.dtd"
   xmlns:inkscape="http://www.inkscape.org/namespaces/inkscape"
   width="900"
   height="300"
   id="svg2"
   sodipodi:version="0.32"
   inkscape:version="0.46"
   version="1.0"
   sodipodi:docname="lenguaje_interpretado.svg"
   inkscape:output_extension="org.inkscape.output.svg.inkscape">
  <defs
     id="defs4">
    <marker
       inkscape:stockid="Arrow2Mend"
       orient="auto"
       refY="0"
       refX="0"
       id="Arrow2Mend"
       style="overflow:visible">
      <path
         id="path3889"
         style="font-size:12px;fill-rule:evenodd;stroke-width:0.625;stroke-linejoin:round"
         d="M 8.7185878,4.0337352 L -2.2072895,0.016013256 L 8.7185884,-4.0017078 C 6.97309,-1.6296469 6.9831476,1.6157441 8.7185878,4.0337352 z"
         transform="scale(-0.6,-0.6)" />
    </marker>
    <marker
       inkscape:stockid="Arrow1Sstart"
       orient="auto"
       refY="0"
       refX="0"
       id="Arrow1Sstart"
       style="overflow:visible">
      <path
         id="path3874"
         d="M 0,0 L 5,-5 L -12.5,0 L 5,5 L 0,0 z"
         style="fill-rule:evenodd;stroke:#000000;stroke-width:1pt;marker-start:none"
         transform="matrix(0.2,0,0,0.2,1.2,0)" />
    </marker>
    <marker
       inkscape:stockid="Arrow1Lend"
       orient="auto"
       refY="0"
       refX="0"
       id="Arrow1Lend"
       style="overflow:visible">
      <path
         id="path3865"
         d="M 0,0 L 5,-5 L -12.5,0 L 5,5 L 0,0 z"
         style="fill-rule:evenodd;stroke:#000000;stroke-width:1pt;marker-start:none"
         transform="matrix(-0.8,0,0,-0.8,-10,0)" />
    </marker>
    <linearGradient
       inkscape:collect="always"
       id="linearGradient3612">
      <stop
         style="stop-color:#929292;stop-opacity:1;"
         offset="0"
         id="stop3614" />
      <stop
         style="stop-color:#929292;stop-opacity:0;"
         offset="1"
         id="stop3616" />
    </linearGradient>
    <linearGradient
       id="linearGradient2411">
      <stop
         style="stop-color:#e5ff80;stop-opacity:1"
         offset="0"
         id="stop2413" />
      <stop
         style="stop-color:#aade87;stop-opacity:1"
         offset="1"
         id="stop2415" />
    </linearGradient>
    <inkscape:perspective
       sodipodi:type="inkscape:persp3d"
       inkscape:vp_x="99.122203 : 503.52459 : 1"
       inkscape:vp_y="6.1230318e-14 : 1000 : 0"
       inkscape:vp_z="843.21668 : 503.52459 : 1"
       inkscape:persp3d-origin="471.16944 : 328.13089 : 1"
       id="perspective10" />
    <filter
       inkscape:collect="always"
       id="filter3604">
      <feGaussianBlur
         inkscape:collect="always"
         stdDeviation="1.1830868"
         id="feGaussianBlur3606" />
    </filter>
    <linearGradient
       inkscape:collect="always"
       xlink:href="#linearGradient3612"
       id="linearGradient4377"
       gradientUnits="userSpaceOnUse"
       x1="427.04199"
       y1="478.84805"
       x2="426.78946"
       y2="415.3125" />
  </defs>
  <sodipodi:namedview
     id="base"
     pagecolor="#ffffff"
     bordercolor="#666666"
     borderopacity="1.0"
     inkscape:pageopacity="0.0"
     inkscape:pageshadow="2"
     inkscape:zoom="0.70619899"
     inkscape:cx="280.34471"
     inkscape:cy="254.86017"
     inkscape:document-units="px"
     inkscape:current-layer="layer1"
     showgrid="false"
     inkscape:window-width="1430"
     inkscape:window-height="782"
     inkscape:window-x="2"
     inkscape:window-y="35" />
  <metadata
     id="metadata7">
    <rdf:RDF>
      <cc:Work
         rdf:about="">
        <dc:format>image/svg+xml</dc:format>
        <dc:type
           rdf:resource="http://purl.org/dc/dcmitype/StillImage" />
      </cc:Work>
    </rdf:RDF>
  </metadata>
  <g
     inkscape:label="Capa 1"
     inkscape:groupmode="layer"
     id="layer1"
     transform="translate(-16.840502,8.3091192)">
    <g
       transform="matrix(1.5112046,0,0,1.5112046,-349.2591,-480.55539)"
       id="g3638">
      <path
         id="path3640"
         d="M 416.9465,413.68791 C 415.06457,413.68791 413.54952,415.20296 413.54952,417.08489 L 413.54952,461.07581 C 413.54952,462.95774 415.06457,464.4728 416.9465,464.47279 L 460.93742,464.47279 C 462.81935,464.47279 464.33441,462.95775 464.3344,461.07581 L 464.3344,421.75574 L 456.24534,413.68791 L 416.9465,413.68791 z"
         style="opacity:0.71984432;fill:#24221c;fill-opacity:1;fill-rule:evenodd;stroke:#000000;stroke-width:0.67939651;stroke-linecap:butt;stroke-linejoin:miter;marker:none;marker-start:none;marker-mid:none;marker-end:none;stroke-miterlimit:4;stroke-dasharray:none;stroke-dashoffset:0;stroke-opacity:1;visibility:visible;display:inline;overflow:visible;filter:url(#filter3604);enable-background:accumulate" />
      <path
         style="opacity:1;fill:#ffffff;fill-opacity:1;fill-rule:evenodd;stroke:#000000;stroke-width:0.67939651;stroke-linecap:butt;stroke-linejoin:miter;marker:none;marker-start:none;marker-mid:none;marker-end:none;stroke-miterlimit:4;stroke-dasharray:none;stroke-dashoffset:0;stroke-opacity:1;visibility:visible;display:inline;overflow:visible;enable-background:accumulate"
         d="M 416.41079,412.79506 C 414.52886,412.79506 413.01381,414.31011 413.01381,416.19204 L 413.01381,460.18296 C 413.01381,462.06489 414.52886,463.57995 416.41079,463.57994 L 460.40171,463.57994 C 462.28364,463.57994 463.7987,462.0649 463.79869,460.18296 L 463.79869,420.86289 L 455.70963,412.79506 L 416.41079,412.79506 z"
         id="path3642" />
      <path
         style="opacity:1;fill:#e6e6e6;fill-opacity:1;fill-rule:evenodd;stroke:#000000;stroke-width:0.67939651;stroke-linecap:butt;stroke-linejoin:round;marker:none;marker-start:none;marker-mid:none;marker-end:none;stroke-miterlimit:4;stroke-dasharray:none;stroke-dashoffset:0;stroke-opacity:1;visibility:visible;display:inline;overflow:visible;enable-background:accumulate"
         d="M 463.79869,420.86289 L 455.70963,412.79506 L 455.70963,417.46591 C 455.70963,419.34783 457.22468,420.86289 459.10661,420.86289 L 463.79869,420.86289 z"
         id="path3644" />
      <path
         sodipodi:type="inkscape:offset"
         inkscape:radius="-0.84569728"
         inkscape:original="M 416.40625 412.78125 C 414.52431 412.78124 413 414.30557 413 416.1875 L 413 460.1875 C 412.99999 462.06944 414.52432 463.59376 416.40625 463.59375 L 460.40625 463.59375 C 462.28819 463.59376 463.81251 462.06944 463.8125 460.1875 L 463.8125 420.875 L 455.71875 412.78125 L 416.40625 412.78125 z "
         style="opacity:1;fill:url(#linearGradient4377);fill-opacity:1;fill-rule:evenodd;stroke:none;stroke-width:0.67939651;stroke-linecap:butt;stroke-linejoin:miter;marker:none;marker-start:none;marker-mid:none;marker-end:none;stroke-miterlimit:4;stroke-dasharray:none;stroke-dashoffset:0;stroke-opacity:1;visibility:visible;display:inline;overflow:visible;enable-background:accumulate"
         id="path3646"
         d="M 416.40625,413.625 C 414.98098,413.62499 413.84375,414.76223 413.84375,416.1875 L 413.84375,460.1875 C 413.84374,461.61277 414.98099,462.75001 416.40625,462.75 L 460.40625,462.75 C 461.83153,462.75001 462.96876,461.61278 462.96875,460.1875 L 462.96875,421.21875 L 455.375,413.625 L 416.40625,413.625 z" />
    </g>
    <path
       sodipodi:nodetypes="cccccccccccccc"
       id="path4387"
       d="M 519.11396,115.94484 C 516.7666,115.94484 514.86603,117.82602 514.86603,120.17341 L 514.86603,135.57755 C 514.86603,137.92494 516.7666,139.80612 519.11396,139.80613 L 533.78716,139.80613 L 645.29022,139.80613 L 645.29022,154.5376 C 646.18773,155.43505 647.62766,155.43504 648.52499,154.5376 L 673.21396,129.84864 C 674.11141,128.95131 674.11141,127.51143 673.21396,126.61387 L 648.52499,101.9055 C 647.62766,101.00793 646.18773,101.00794 645.29022,101.9055 L 645.29022,116.65644 L 519.11396,115.94484 z"
       style="opacity:1;fill:#ffcc00;fill-opacity:1;fill-rule:evenodd;stroke:#000000;stroke-width:0.62355828px;stroke-linecap:butt;stroke-linejoin:miter;marker:none;marker-start:none;marker-mid:none;marker-end:none;stroke-miterlimit:4;stroke-dasharray:none;stroke-dashoffset:0;stroke-opacity:1;visibility:visible;display:inline;overflow:visible;enable-background:accumulate" />
    <rect
       style="fill:#d45500;fill-opacity:1;fill-rule:nonzero;stroke:none;stroke-width:1px;stroke-linecap:butt;stroke-linejoin:miter;marker:none;marker-start:none;marker-mid:none;marker-end:none;stroke-miterlimit:4;stroke-dasharray:none;stroke-dashoffset:0;stroke-opacity:1;visibility:visible;display:inline;overflow:visible;enable-background:accumulate"
       id="rect2576"
       width="88.335526"
       height="244.01344"
       x="438.01663"
       y="6.4070282"
       ry="20.077068" />
    <text
       xml:space="preserve"
       style="font-size:14.76507568px;font-style:normal;font-weight:normal;fill:#000000;fill-opacity:1;stroke:none;stroke-width:1px;stroke-linecap:butt;stroke-linejoin:miter;stroke-opacity:1;font-family:Bitstream Vera Sans"
       x="559.08789"
       y="131.79259"
       id="text4389"><tspan
         sodipodi:role="line"
         id="tspan4391"
         x="559.08789"
         y="131.79259">Salida</tspan></text>
    <text
       xml:space="preserve"
       style="font-size:14.76507568px;font-style:normal;font-weight:normal;fill:#ffffff;fill-opacity:1;stroke:none;stroke-width:1px;stroke-linecap:butt;stroke-linejoin:miter;stroke-opacity:1;font-family:Bitstream Vera Sans"
       x="446.34161"
       y="132.76805"
       id="text4643"><tspan
         sodipodi:role="line"
         id="tspan4645"
         x="446.34161"
         y="132.76805">Intérprete</tspan></text>
    <path
       style="opacity:1;fill:#ffcc00;fill-opacity:1;fill-rule:evenodd;stroke:#000000;stroke-width:0.62355828px;stroke-linecap:butt;stroke-linejoin:miter;marker:none;marker-start:none;marker-mid:none;marker-end:none;stroke-miterlimit:4;stroke-dasharray:none;stroke-dashoffset:0;stroke-opacity:1;visibility:visible;display:inline;overflow:visible;enable-background:accumulate"
       d="M 299.11396,75.944839 C 296.7666,75.944839 294.86603,77.826019 294.86603,80.173409 L 294.86603,95.577549 C 294.86603,97.924939 296.7666,99.806119 299.11396,99.806129 L 313.78716,99.806129 L 425.29022,99.806129 L 425.29022,114.5376 C 426.18773,115.43505 427.62766,115.43504 428.52499,114.5376 L 453.21396,89.848639 C 454.11141,88.951309 454.11141,87.511429 453.21396,86.613869 L 428.52499,61.905499 C 427.62766,61.007929 426.18773,61.007939 425.29022,61.905499 L 425.29022,76.656439 L 299.11396,75.944839 z"
       id="rect2395"
       sodipodi:nodetypes="cccccccccccccc" />
    <text
       id="text4637"
       y="91.792587"
       x="339.08789"
       style="font-size:14.76507568px;font-style:normal;font-weight:normal;fill:#000000;fill-opacity:1;stroke:none;stroke-width:1px;stroke-linecap:butt;stroke-linejoin:miter;stroke-opacity:1;font-family:Bitstream Vera Sans"
       xml:space="preserve"><tspan
         y="91.792587"
         x="339.08789"
         id="tspan4639"
         sodipodi:role="line">Entrada</tspan></text>
    <path
       sodipodi:nodetypes="cccccccccccccc"
       id="path4381"
       d="M 299.11396,175.94484 C 296.7666,175.94484 294.86603,177.82602 294.86603,180.17341 L 294.86603,195.57755 C 294.86603,197.92494 296.7666,199.80612 299.11396,199.80613 L 313.78716,199.80613 L 425.29022,199.80613 L 425.29022,214.5376 C 426.18773,215.43505 427.62766,215.43504 428.52499,214.5376 L 453.21396,189.84864 C 454.11141,188.95131 454.11141,187.51143 453.21396,186.61387 L 428.52499,161.9055 C 427.62766,161.00793 426.18773,161.00794 425.29022,161.9055 L 425.29022,176.65644 L 299.11396,175.94484 z"
       style="opacity:1;fill:#ffcc00;fill-opacity:1;fill-rule:evenodd;stroke:#000000;stroke-width:0.62355828px;stroke-linecap:butt;stroke-linejoin:miter;marker:none;marker-start:none;marker-mid:none;marker-end:none;stroke-miterlimit:4;stroke-dasharray:none;stroke-dashoffset:0;stroke-opacity:1;visibility:visible;display:inline;overflow:visible;enable-background:accumulate" />
    <text
       xml:space="preserve"
       style="font-size:14.76507568px;font-style:normal;font-weight:normal;fill:#000000;fill-opacity:1;stroke:none;stroke-width:1px;stroke-linecap:butt;stroke-linejoin:miter;stroke-opacity:1;font-family:Bitstream Vera Sans"
       x="317.08789"
       y="191.79259"
       id="text4383"><tspan
         sodipodi:role="line"
         id="tspan4385"
         x="317.08789"
         y="191.79259">Código fuente</tspan></text>
    <rect
       style="opacity:1;fill:#ffffff;fill-opacity:1;fill-rule:evenodd;stroke:#000000;stroke-width:1.23216367;stroke-linecap:round;stroke-linejoin:round;marker:none;marker-start:none;marker-mid:none;marker-end:none;stroke-miterlimit:4;stroke-dasharray:9.85730929, 9.85730929;stroke-dashoffset:0;stroke-opacity:1;visibility:visible;display:inline;overflow:visible;enable-background:accumulate"
       id="rect4393"
       width="107.90667"
       height="89.88353"
       x="644.65973"
       y="168.68228"
       ry="16.529139" />
    <path
       style="opacity:1;fill:#ffffff;fill-opacity:1;fill-rule:evenodd;stroke:#000000;stroke-width:1;stroke-linecap:round;stroke-linejoin:round;marker:none;marker-start:none;marker-mid:none;marker-end:none;stroke-miterlimit:4;stroke-dasharray:8, 8;stroke-dashoffset:0;stroke-opacity:1;visibility:visible;display:inline;overflow:visible;enable-background:accumulate"
       d="M 508.278,175.22213 C 507.69366,175.22213 507.10166,175.46085 506.653,175.90963 L 481.9655,200.62838 C 481.06805,201.52594 481.06803,202.9498 481.9655,203.84713 L 506.653,228.53463 C 507.55033,229.43207 508.97423,229.43209 509.87175,228.53463 L 509.87175,213.81588 L 513.778,213.81588 L 625.278,213.81588 L 625.278,228.53463 C 626.17552,229.43209 627.63067,229.43207 628.528,228.53463 L 653.2155,203.84713 C 654.11293,202.9498 654.11295,201.52594 653.2155,200.62838 L 628.528,175.90963 C 627.63065,175.01206 626.17551,175.01207 625.278,175.90963 L 625.278,190.65963 L 509.87175,190.00338 L 509.87175,175.90963 C 509.42299,175.46085 508.86234,175.22213 508.278,175.22213 z"
       id="path4922" />
    <text
       id="text4931"
       y="219.12851"
       x="666.27802"
       style="font-size:14.76507568px;font-style:normal;font-weight:normal;fill:#000000;fill-opacity:1;stroke:none;stroke-width:1px;stroke-linecap:butt;stroke-linejoin:miter;stroke-opacity:1;font-family:Bitstream Vera Sans"
       xml:space="preserve"><tspan
         y="219.12851"
         x="666.27802"
         id="tspan4933"
         sodipodi:role="line">Bytecode</tspan></text>
  </g>
</svg>
